<?xml version="1.0" standalone="no"?>
<!DOCTYPE svg PUBLIC "-//W3C//DTD SVG 20010904//EN"
 "http://www.w3.org/TR/2001/REC-SVG-20010904/DTD/svg10.dtd">
<svg version="1.0" xmlns="http://www.w3.org/2000/svg"
 width="426.000000pt" height="308.000000pt" viewBox="0 0 426.000000 308.000000"
 preserveAspectRatio="xMidYMid meet">
<metadata>
Created by potrace 1.16, written by Peter Selinger 2001-2019
</metadata>
<g transform="translate(0.000000,308.000000) scale(0.100000,-0.100000)"
fill="#000000" stroke="none">
<path d="M934 2953 c-215 -193 -305 -310 -339 -438 -21 -83 -19 -146 14 -337
l28 -168 -181 -177 c-100 -98 -203 -208 -228 -244 -175 -244 -221 -541 -131
-839 97 -324 371 -592 694 -679 144 -39 209 -41 1472 -41 1367 0 1312 -3 1457
68 98 48 212 159 257 252 63 130 66 148 71 560 4 413 -4 538 -43 675 -107 368
-417 611 -816 640 -117 9 -315 -8 -476 -40 -317 -64 -638 -213 -898 -418 -49
-39 -251 -208 -448 -376 -197 -168 -376 -317 -398 -330 -58 -34 -148 -39 -220
-12 -142 54 -209 202 -153 341 14 34 231 398 250 419 2 2 72 -9 155 -24 234
-42 354 -27 489 61 75 50 346 322 352 354 2 14 1 39 -4 56 -16 61 -29 65 -326
115 l-277 45 -46 278 c-52 308 -56 320 -131 332 -34 6 -41 2 -124 -73z m1657
-1683 c75 -21 120 -102 99 -179 -29 -108 -166 -144 -245 -65 -59 59 -59 149 0
208 44 44 83 53 146 36z"/>
</g>
</svg>
